<svg xmlns="http://www.w3.org/2000/svg" viewBox="0 0 83.8 86.3"><defs><style>.cls-1{fill:none;}.cls-2{fill:#f8a794;}.cls-3{fill:#f9b4a7;}.cls-4{fill:#f8a995;}.cls-5{fill:#f48275;}.cls-6{fill:#cf4e46;}.cls-7{fill:#fab9a3;}.cls-8{fill:#f48174;}.cls-9{fill:#f3776a;}.cls-10{fill:#f69786;}.cls-11{fill:#75211b;}.cls-12{fill:#973029;}.cls-13{fill:#962d26;}.cls-14{fill:#c2423a;}.cls-15{fill:#bf3d35;}.cls-16{fill:#f58c7c;}.cls-17{fill:#f9b29d;}.cls-18{fill:#fbc4ae;}.cls-19{fill:#fabda7;}.cls-20{fill:#f26f64;}.cls-21{fill:#ad3830;}</style></defs><title>avoid</title><g id="Layer_2" data-name="Layer 2"><g id="Layer_1-2" data-name="Layer 1"><polygon class="cls-1" points="14.47 54.45 21.69 83.68 32.53 66.93 14.47 54.45"/><polygon class="cls-1" points="76.2 47.55 32.53 42.63 32.53 66.93 76.2 47.55"/><polygon class="cls-2" points="76.2 47.55 32.53 42.63 54.16 28.54 76.2 47.55"/><polygon class="cls-3" points="76.2 47.55 32.53 42.63 41.72 55.62 76.2 47.55"/><polygon class="cls-4" points="76.2 47.55 77.58 20.49 54.16 28.54 76.2 47.55"/><polygon class="cls-5" points="76.2 47.55 77.58 20.49 83.8 40.98 76.2 47.55"/><polygon class="cls-6" points="76.2 47.55 79.49 62.33 83.8 40.98 76.2 47.55"/><polygon class="cls-7" points="38.42 0 77.58 20.49 54.16 28.54 38.42 0"/><polygon class="cls-8" points="14.47 54.45 32.53 42.63 32.53 66.93 14.47 54.45"/><polygon class="cls-9" points="41.72 55.62 32.53 42.63 32.53 66.93 41.72 55.62"/><polygon class="cls-10" points="14.47 54.45 32.53 42.63 20.13 19.76 14.47 54.45"/><polygon class="cls-11" points="55.19 74.15 21.69 83.68 42.71 86.3 55.19 74.15"/><polygon class="cls-12" points="55.19 74.15 79.49 62.33 42.71 86.3 55.19 74.15"/><polygon class="cls-12" points="55.19 74.15 21.69 83.68 32.53 66.93 55.19 74.15"/><polygon class="cls-13" points="14.47 54.45 21.69 83.68 1.66 67.91 14.47 54.45"/><polygon class="cls-14" points="14.47 54.45 21.69 83.68 32.53 66.93 14.47 54.45"/><polygon class="cls-15" points="14.47 54.45 0 24.52 1.66 67.91 14.47 54.45"/><polygon class="cls-9" points="14.47 54.45 0 24.52 20.13 19.76 14.47 54.45"/><polygon class="cls-16" points="16.83 7.32 0 24.52 20.13 19.76 16.83 7.32"/><polygon class="cls-17" points="16.83 7.32 38.42 0 20.13 19.76 16.83 7.32"/><polygon class="cls-18" points="54.16 28.54 38.42 0 20.13 19.76 54.16 28.54"/><polygon class="cls-19" points="54.16 28.54 32.53 42.63 20.13 19.76 54.16 28.54"/><polygon class="cls-20" points="55.19 74.15 76.2 47.55 32.53 66.93 55.19 74.15"/><polygon class="cls-20" points="41.72 55.62 76.2 47.55 32.53 66.93 41.72 55.62"/><polygon class="cls-21" points="55.19 74.15 76.2 47.55 79.49 62.33 55.19 74.15"/></g></g></svg>