<svg xmlns="http://www.w3.org/2000/svg" viewBox="0 0 318.28 73.75"><defs><style>.cls-1{fill:#7dd0de;}.cls-2{fill:#0c3830;}.cls-3{fill:#0e3932;}.cls-4{fill:#2dbcb3;}.cls-5{fill:#0c3a32;}</style></defs><title>catch</title><g id="Layer_2" data-name="Layer 2"><g id="Layer_1-2" data-name="Layer 1"><polygon class="cls-1" points="0 28.71 63.8 35.09 29.51 0 0 28.71"/><polygon class="cls-2" points="0 28.71 63.8 35.09 24.72 54.23 0 28.71"/><polygon class="cls-1" points="181.48 51.23 245.46 47.12 205.91 18.09 181.48 51.23"/><polygon class="cls-2" points="181.48 51.23 245.46 47.12 210.03 72.37 181.48 51.23"/><polygon class="cls-1" points="90.92 43.44 150.73 65.77 141.96 23.5 90.92 43.44"/><polygon class="cls-3" points="90.92 43.44 150.73 65.77 122.81 73.75 90.92 43.44"/><polygon class="cls-4" points="287.98 24.43 265.17 51.67 318.28 49.62 287.98 24.43"/><polygon class="cls-5" points="309.77 63.92 265.17 51.67 318.28 49.62 309.77 63.92"/></g></g></svg>